<?xml version="1.0" encoding="UTF-8"?>
<svg id="_レイヤー_1" data-name="レイヤー 1" xmlns="http://www.w3.org/2000/svg" viewBox="0 0 48 40.21">
  <defs>
    <style>
      .cls-1 {
        fill: #fff;
      }

      .cls-2 {
        fill: none;
      }

      .cls-3 {
        fill: #0577be;
      }

      .cls-4 {
        fill: #d9d9d9;
      }
    </style>
  </defs>
  <g>
    <rect class="cls-2" x="16.85" y="3.06" width="11.13" height="4.29"/>
    <path class="cls-4" d="M34.33,24.85V7.35h-3.29V2.5c0-1.38-1.12-2.5-2.49-2.5h-12.25c-1.38,0-2.5,1.12-2.5,2.5v4.85h-3.47v30.55h22.1c-1.12-1.56-1.78-3.47-1.78-5.54,0-3.05,1.44-5.77,3.68-7.51ZM27.98,7.35h-11.13V3.06h11.13v4.29Z"/>
    <path class="cls-4" d="M6.2,7.35h-3.15c-1.69,0-3.06,1.37-3.06,3.06v24.44c0,1.69,1.37,3.06,3.06,3.06h3.15s0,0,0,0V7.35Z"/>
    <polygon class="cls-4" points="9.94 7.35 6.88 7.35 6.2 7.35 6.2 37.9 6.21 37.9 6.88 37.9 9.94 37.9 10.33 37.9 10.33 7.35 9.94 7.35"/>
    <path class="cls-4" d="M37.95,23.11V7.35h-3.62v17.5c1.05-.82,2.28-1.42,3.62-1.74Z"/>
    <path class="cls-4" d="M40.15,22.86c1.7,0,3.3.45,4.68,1.23v-13.68c0-1.69-1.37-3.06-3.06-3.06h-3.82v15.77c.71-.17,1.44-.26,2.2-.26Z"/>
  </g>
  <path class="cls-3" d="M40.15,24.51c-4.33,0-7.85,3.51-7.85,7.85s3.51,7.85,7.85,7.85,7.85-3.51,7.85-7.85-3.51-7.85-7.85-7.85Z"/>
  <polygon class="cls-1" points="39.33 32.8 42.6 28.59 44.41 29.99 39.71 36.03 35.96 33.02 37.38 31.25 39.33 32.8"/>
</svg>